<svg xmlns="http://www.w3.org/2000/svg"><symbol id="icon-instagram" viewBox="0 0 512 512"><path d="M373.7 0H138.3C62.1 0 0 62.1 0 138.3v235.3C0 449.9 62.1 512 138.3 512h235.3c76.3 0 138.3-62.1 138.3-138.3V138.3C512 62.1 449.9 0 373.7 0zm96.9 373.7c0 53.5-43.5 97-97 97H138.3c-53.5 0-97-43.5-97-97V138.3c0-53.5 43.5-97 97-97h235.3c53.5 0 97 43.5 97 97v235.4z" stroke="#000" stroke-width=".25" stroke-miterlimit="10"/><path d="M370.6 238.1c-3.6-24.5-14.8-46.8-32.4-64.3-17.5-17.5-39.8-28.7-64.3-32.4-11.2-1.7-22.5-1.7-33.7 0-30.3 4.5-57.1 20.5-75.4 45.2s-25.9 54.9-21.4 85.2c4.5 30.3 20.5 57.1 45.2 75.4 20 14.8 43.7 22.6 68.2 22.6 5.7 0 11.4-.4 17.1-1.3 30.3-4.5 57.1-20.5 75.4-45.2 18.2-24.6 25.8-54.8 21.3-85.2zm-102.8 89.5c-19.4 2.9-38.8-2-54.5-13.7s-26-28.8-28.9-48.2c-2.9-19.4 2-38.8 13.7-54.5 11.7-15.8 28.8-26 48.2-28.9 3.6-.5 7.2-.8 10.8-.8 3.6 0 7.2.3 10.8.8 32.2 4.8 57.1 29.6 61.9 61.9 5.8 40.1-21.9 77.5-62 83.4zM400 112c-3.9-3.9-9.2-6.1-14.6-6.1s-10.8 2.2-14.6 6.1c-3.9 3.9-6.1 9.2-6.1 14.6 0 5.5 2.2 10.8 6.1 14.6 3.9 3.9 9.2 6.1 14.6 6.1s10.8-2.2 14.6-6.1c3.9-3.9 6.1-9.2 6.1-14.6 0-5.5-2.2-10.8-6.1-14.6z"/></symbol><symbol id="icon-twitter" viewBox="0 0 626 514.4"><path d="M613 65.4c-4.9-3.4-11.4-3.2-16.1.3-3.3 2.5-8.2 4.6-13.9 6.5 18.8-23.3 19.1-38.9 18.8-42.8-.4-5-3.4-9.4-7.9-11.5-4.5-2.1-9.9-1.7-14 1.3-25.7 18.4-51.3 22.4-66.3 22.9C489.1 19.4 457.6 7 424.1 7c-72.5 0-131.5 59-131.5 131.5 0 5.2.3 10.5.9 15.7-121-3-219.1-117-220.1-118.2-2.9-3.4-7.3-5.3-11.8-4.9-4.5.4-8.5 2.9-10.8 6.8C20 90.5 32.6 140.4 53.7 175.3c-3.9-2.1-8.7-2.2-12.7-.2-4.6 2.3-7.6 7-7.7 12.2-.9 55.3 24.4 88.4 49.8 107.7-1.9.8-3.6 1.9-5 3.5-3.3 3.6-4.5 8.8-3 13.5 17.7 57.1 59.3 78.5 88.5 86.6-33.5 23.6-74.9 29.1-106.4 29.1-20.1 0-33.9-2.4-34.1-2.4-6.3-1.1-12.6 2.3-15.1 8.1-2.6 5.9-.7 12.7 4.4 16.6 63.1 47.5 139.4 57.4 192.3 57.4 41.8 0 70.8-6.1 72.3-6.4 271.4-63.4 281.7-306.6 281.2-351 50.9-46.7 59-65 60.2-69.5 1.7-5.7-.6-11.8-5.4-15.1zm-78.1 68.4c-3.1 2.9-4.8 7-4.5 11.2.2 2.6 15 264.8-259.4 328.9-.3.1-27.6 5.8-66.2 5.8-36 0-83.7-4.9-129.1-24.9 41.6-2.7 92.7-15.4 129.4-56.1 3.7-4.1 4.6-9.9 2.3-14.9-2.2-5-7.2-8.2-12.7-8.2-2.6 0-57.2-.7-84.5-51.4 12.6.4 24.1-1.5 32.6-5.3 5.4-2.5 8.7-8.2 8-14.1-.6-5.9-5-10.8-10.9-12.1-3-.6-65.8-15-77.1-81.2 9.8 3.8 21.8 6.4 33.4 4.7 5.4-.8 9.8-4.7 11.3-9.9s-.2-10.9-4.3-14.4c-2.8-2.4-62.7-54.4-36.7-122.6C101.4 104.6 196.4 188 311 181.6c4.1-.2 8-2.3 10.4-5.7 2.4-3.3 3.3-7.6 2.2-11.6-2.1-8.4-3.2-17.1-3.2-25.8 0-57.2 46.5-103.7 103.7-103.7 28 0 54.3 11 74 31 2.6 2.6 6 4.1 9.7 4.1h2.1c10.2 0 26.2-1.2 44.5-7.1C548.5 69 540.9 76 531 83.6c-4.9 3.8-6.7 10.3-4.5 16 2.2 5.7 8 9.3 14 8.8 2.2-.2 12.1-1 24.3-3.2-7.6 7.8-17.4 17.3-29.9 28.6z"/></symbol><symbol id="icon-vkontakte" viewBox="0 0 520 306.6"><path d="M493.3,233.2c-11.1-13.3-23.7-25.3-35.9-36.8
      c-4.3-4.1-8.7-8.2-13-12.4l0,0c-5.7-5.6-8.5-9.6-8.8-12.5s1.7-7.2,6.2-13.5c6.8-9.5,14-19,21-28.2c6.2-8.2,12.6-16.6,18.8-25.1
      l1.4-1.9c12-16.6,24.4-33.8,31-54.7c1.9-6,3.9-14.9-0.9-22.7c-4.8-7.8-13.6-10.1-19.8-11.2c-3-0.5-5.9-0.6-8.6-0.6l-77.8-0.1
      c-13.5-0.2-22.8,6.2-27.9,19c-4.1,10.2-8.9,22.1-14.4,33.3c-10.7,21.7-24.2,46.7-43.8,67.5l-0.9,0.9c-1.3,1.4-3.5,3.8-4.6,4.3
      c-2.1-1.3-4.6-9-4.5-13c0-0.1,0-0.2,0-0.3l-0.1-89.9c0-0.5,0-0.9-0.1-1.4c-1.7-12.8-5.1-25.7-25.4-29.7c-0.7-0.1-1.3-0.2-2-0.2
      h-80.9c-15.2,0-23.3,7-29.7,14.5c-1.9,2.2-6.8,8.1-4.3,15.2c2.6,7.2,10.2,8.7,12.7,9.2c8.8,1.7,13.4,6.7,14.8,16.2
      c2.8,18.5,3.1,38.3,1.1,62.3c-0.6,6.4-1.6,11.3-3.4,15.4c-0.5,1.1-0.9,1.8-1.2,2.2c-0.5-0.2-1.2-0.5-2.2-1.2
      c-6.2-4.2-10.9-10.8-15.4-17.2c-18-25.5-33.2-53.6-46.4-86c-5.4-13.3-15.6-20.7-28.7-20.9c-24.9-0.4-48-0.4-70.5,0
      c-10.6,0.2-18,3.5-22.1,9.9S3.1,38.2,7.4,47.9c31.2,69.4,59.5,119.8,91.8,163.6c22.8,30.8,45.7,52.2,72.1,67.4
      c27.8,15.9,59.1,23.7,95.4,23.7c4.1,0,8.3-0.1,12.6-0.3c22.4-1,31.5-9.9,32.5-31.8c0.6-11.5,1.8-20.9,6.3-29
      c1.2-2.3,2.7-3.8,3.8-4.1c1.2-0.3,3.3,0.4,5.6,1.9c4.2,2.8,7.9,6.5,10.9,9.8s6.1,6.8,9.1,10.1c6.3,7.1,12.9,14.4,19.8,21.4
      c15.5,15.8,33.5,23.1,53.3,21.6h71.2l0,0c0.2,0,0.5,0,0.7,0c8.2-0.5,15.3-5.1,19.5-12.5c5-8.9,4.9-20.2-0.2-30.1
      C506.5,249.5,499.5,240.6,493.3,233.2z M494.3,280c-1,1.7-2.2,2.1-2.8,2.1h-71.2l0,0c-0.3,0-0.6,0-0.8,0
      c-14,1.2-25.9-3.8-37.5-15.5c-6.5-6.7-12.9-13.8-19.1-20.7c-3-3.4-6.1-6.9-9.3-10.3c-3.9-4.2-8.7-9.1-14.9-13.1
      c-9.2-6-16.9-5.8-21.7-4.6c-4.7,1.2-11.5,4.6-16.7,14c-6.7,12.2-8.2,25.4-8.8,37.9c-0.3,7.6-1.6,9.6-2.2,10.1
      c-0.7,0.7-3.1,1.8-10.9,2.2c-37.8,1.8-69.5-5-96.9-20.7c-23.9-13.7-44.8-33.3-65.8-61.8c-31.4-42.5-59-91.8-89.6-159.8
      c-1.1-2.5-1.5-4-1.5-4.8c0.8-0.3,2.3-0.6,5-0.6c22.2-0.4,45.1-0.4,69.8,0c3.4,0.1,7.2,1.1,10.1,8.2c13.8,33.9,29.7,63.3,48.6,90.1
      c5,7.1,11.3,15.9,20.5,22.2c8.4,5.8,15.3,5.5,19.5,4.3c4.3-1.2,10.2-4.7,14.2-14.1c2.6-6.1,4.1-12.9,4.9-21.6
      c2.2-25.7,1.8-47-1.2-67.1c-2.1-14.4-9.6-24.8-21.3-30.1c2.1-1.1,4.4-1.5,7.7-1.5h79.9c4.5,1,5.4,2.2,5.7,2.6c1.3,1.7,2,5.8,2.5,9
      l0.1,89.1c-0.2,8.5,4,27.5,18.1,32.7c0.1,0,0.2,0.1,0.4,0.1c12.9,4.2,21.4-4.9,25.9-9.8l0.8-0.9c21.5-22.8,36-49.5,47.3-72.5
      c5.9-11.9,10.9-24.2,15.1-34.8c2.1-5.3,4-6.2,8.6-6.1c0.1,0,0.1,0,0.2,0l77.9,0.1c1.8,0,3.7,0,5.2,0.3c3.7,0.6,5.2,1.4,5.7,1.7
      c0.1,0.6,0,2.3-1.1,5.8C489,59.9,478.1,75,466.6,91l-1.4,1.9c-6,8.3-12.4,16.7-18.5,24.8c-7.1,9.3-14.4,19-21.3,28.7
      c-14.8,20.7-13.5,34.4,5,52.4c4.4,4.3,8.8,8.5,13.2,12.6c12.3,11.6,23.9,22.6,34.2,35c5.4,6.5,11.6,14.4,16,23
      C496.1,273.8,495.5,277.9,494.3,280z" stroke-width="8" stroke-miterlimit="10"/></symbol></svg>