<?xml version="1.0" encoding="utf-8"?>
<!-- Generator: Adobe Illustrator 22.0.1, SVG Export Plug-In . SVG Version: 6.00 Build 0)  -->
<svg version="1.1" id="Layer_1" xmlns="http://www.w3.org/2000/svg" xmlns:xlink="http://www.w3.org/1999/xlink" x="0px" y="0px"
	 viewBox="0 0 668.8 668.8" style="enable-background:new 0 0 668.8 668.8;" xml:space="preserve">
<style type="text/css">
	.st0{fill:#F50049;}
</style>
<path class="st0" d="M607.6,375.3h-21.2v-86c0.2-2.2,0.3-4.4,0.3-6.7l0.1-11.3c0-33.4-26.8-72.2-61.3-72.2h-0.4V99.5
	c0-33.8-27.5-61.3-61.3-61.3H206.2c-7.4,0-14.5,1.3-21.1,3.7c-2.8,1-5.5,2.3-8.1,3.7c-1.7,0.9-3.4,2-5.1,3.1
	c-16.3,11-27,29.7-27,50.8v99.6h-0.3c-13,0-24.8,5.5-34.6,14.1c-16.5,14.3-27.1,37.4-27.1,58.5v103.6H61.3
	C27.5,375.3,0,402.8,0,436.6v13.8c0,3,0.2,5.9,0.5,8.8v110.2c0,33.8,27.5,61.3,61.3,61.3h545.8c33.8,0,61.3-27.5,61.3-61.3V436.6
	C668.8,402.8,641.3,375.3,607.6,375.3L607.6,375.3z M118.4,271.3c0-11.6,6.6-24.7,14.7-31.9c3.6-3.1,7.5-5,11.2-5h380.9
	c12,0,26.3,20.2,26.3,37.2v15.7c-2.4,20.3-19.8,36.1-40.7,36.1c-22.6,0-41-18.4-41-41c0-9.7-7.8-17.5-17.5-17.5s-17.5,7.8-17.5,17.5
	c0,22.6-18.4,41-41,41s-41-18.4-41-41c0-9.7-7.8-17.5-17.5-17.5s-17.5,7.8-17.5,17.5c0,22.6-18.4,41-41,41s-41-18.4-41-41
	c0-9.7-7.8-17.5-17.5-17.5s-17.5,7.8-17.5,17.5c0,22.6-18.4,41-41,41s-41-18.4-41-40.9L118.4,271.3L118.4,271.3z M206.2,73.2h257.6
	c0.9,0,1.8,0,2.7,0.1c13.2,1.3,23.6,12.5,23.6,26.1l-0.2,14.7c0,22.3-17.9,40.4-40,40.4s-40-18.1-40-40.4c0-9.7-7.8-17.5-17.5-17.5
	s-17.5,7.8-17.5,17.5c0,22.3-17.9,40.4-40,40.4c-10.7,0-20.7-4.2-28.2-11.8c-7.6-7.6-11.8-17.8-11.8-28.6c0-9.7-7.8-17.5-17.5-17.5
	s-17.5,7.8-17.5,17.5c0,22.3-17.9,40.4-40,40.4s-40-18.1-40-40.4V99.4C180,85,191.8,73.2,206.2,73.2L206.2,73.2z M180,178
	c11.6,7.4,25.3,11.7,40,11.7c23,0,43.7-10.5,57.5-27c1.4,1.7,2.9,3.3,4.4,4.9c14.2,14.3,33,22.2,53.1,22.2c23.1,0,43.7-10.5,57.5-27
	c13.8,16.5,34.4,27,57.5,27c14.8,0,28.5-4.3,40.1-11.8v21.2H180V178z M118,346.2c11.9,7.8,26.1,12.3,41.4,12.3
	c23.5,0,44.6-10.7,58.5-27.6c14,16.8,35,27.6,58.6,27.6S321,347.8,335,331c14,16.8,35,27.6,58.6,27.6s44.6-10.7,58.6-27.6
	c14,16.8,35,27.6,58.6,27.6c15,0,28.9-4.4,40.7-11.9v28.6H118V346.2z M607.1,410.3c14.5,0,26.3,11.8,26.3,26.3v17
	c-0.1,0.8-0.2,1.5-0.3,2.3c-0.1,0.7-0.1,1.4-0.3,2.1c-0.1,0.8-0.3,1.5-0.5,2.3c-0.1,0.7-0.3,1.4-0.4,2c-0.2,0.7-0.5,1.5-0.7,2.2
	c-0.2,0.6-0.4,1.3-0.6,1.9l-0.9,2.1c-0.3,0.6-0.5,1.2-0.8,1.8c-0.3,0.7-0.7,1.3-1.1,2c-0.3,0.6-0.6,1.2-1,1.7
	c-0.4,0.6-0.8,1.3-1.3,1.9c-0.4,0.5-0.7,1.1-1.1,1.6c-0.5,0.6-0.9,1.2-1.4,1.8l-1.2,1.5c-0.5,0.6-1.1,1.1-1.6,1.6l-1.4,1.4
	c-0.6,0.5-1.2,1-1.7,1.5c-0.5,0.4-1,0.9-1.5,1.2c-0.6,0.5-1.3,0.9-1.9,1.3c-0.5,0.4-1,0.8-1.6,1.1c-0.7,0.4-1.3,0.8-2,1.2
	c-0.5,0.3-1.1,0.7-1.6,0.9c-0.7,0.4-1.4,0.7-2.2,1c-0.6,0.3-1.1,0.5-1.7,0.8c-0.8,0.3-1.5,0.5-2.3,0.8c-0.6,0.2-1.1,0.4-1.7,0.6
	c-0.8,0.2-1.7,0.4-2.5,0.6c-0.6,0.1-1.1,0.3-1.7,0.4c-1,0.2-2,0.3-3,0.4c-0.5,0.1-0.9,0.2-1.4,0.2c-1.5,0.1-3,0.2-4.5,0.2
	c-12.2,0-23.8-4.8-32.4-13.4c-8.7-8.7-13.4-20.2-13.4-32.4c0-3.6-1.1-7-3-9.8c-3.1-4.7-8.5-7.7-14.5-7.7c-9.7,0-17.5,7.8-17.5,17.5
	c0,25.3-20.6,45.8-45.8,45.8c-25.3,0-45.8-20.6-45.8-45.8c0-9.7-7.8-17.5-17.5-17.5s-17.5,7.8-17.5,17.5c0,25.3-20.6,45.8-45.8,45.8
	c-12.2,0-23.8-4.8-32.4-13.4c-3.2-3.2-5.9-6.9-8.1-10.8c-3.5-6.6-5.4-13.9-5.4-21.6c0-9.7-7.8-17.5-17.5-17.5c-3.6,0-7,1.1-9.8,3
	c-4.7,3.1-7.7,8.5-7.7,14.5c0,25.3-20.6,45.8-45.8,45.8c-25.3,0-45.8-20.6-45.8-45.8c0-9.7-7.8-17.5-17.5-17.5s-17.5,7.8-17.5,17.5
	c0,25.3-20.6,45.8-45.8,45.8c-23.1,0-42.2-17.2-45.3-39.5v-20.2c0-14.5,11.8-26.3,26.3-26.3L607.1,410.3L607.1,410.3z M607.6,595.6
	H61.8c-14.5,0-26.3-11.8-26.3-26.3v-52.1c12.9,8.8,28.6,13.9,45.3,13.9c25.6,0,48.5-12,63.3-30.7c14.8,18.7,37.7,30.7,63.3,30.7
	s48.5-12,63.3-30.6c1.9,2.4,4,4.7,6.2,6.9c15.3,15.3,35.6,23.7,57.2,23.7c25.6,0,48.5-12,63.3-30.7c13.9,17.5,34.9,29.1,58.6,30.5
	c1.6,0.1,3.2,0.1,4.8,0.1c25.6,0,48.5-12,63.3-30.6c1.9,2.4,4,4.7,6.2,6.9c15.3,15.3,35.6,23.7,57.2,23.7c17.1,0,33-5.4,46.2-14.5
	v52.7C633.8,583.8,622,595.6,607.6,595.6L607.6,595.6z"/>
</svg>
