<svg version="1" xmlns="http://www.w3.org/2000/svg" width="933.333" height="933.333" viewBox="0 0 700 700"><path d="M200.6 42.1c-23.3 5.7-40.8 23.4-47.1 47.5-1.3 4.9-1.5 15.1-1.5 62.1v56.2l-3.7.6c-14 2-24.2 6.9-34.2 16.1-11.8 10.9-19.1 22.8-24.4 39.4-2 6.2-2.1 8.9-2.5 67.7l-.3 61.3H71.6c-11.9 0-17 .4-23 2-18 4.6-33.4 16.9-41.4 33.1C.1 442.4.3 440.2.7 527.5c.4 73.8.6 78.4 2.4 85.5 3.1 11.4 7.3 18.4 16.9 28 9.6 9.6 16.7 13.7 29.6 17 7.6 2 11.8 2 300.3 2 253 0 293.5-.2 299.6-1.5 18.2-3.8 35.2-17 43.4-33.5 7.2-14.7 7.1-13.2 7.1-98.5s.1-83.8-7.1-98.5c-5.4-10.9-16-21.8-26.6-27.3-11.3-5.9-20-7.7-37.4-7.7h-14.8l-.4-61.3c-.3-68.8 0-65.2-8.2-82.4-7.9-16.2-20.7-29.8-34.2-36-4.5-2.1-7.4-2.8-19-4.9l-2.2-.4-.3-56.8c-.5-63-.3-61.5-7.5-76.2-5.3-11-17-22.5-28.4-28-15.4-7.4-6.2-7-163.9-6.9-136.3 0-141.8.1-149.4 2zm296.9 37.4C508 84.7 513 94.4 513 109.8c0 19.7-3.3 29.6-12.9 39.3-16.2 16.2-41 16.5-57.6.8-8.2-7.7-13.5-20.1-13.5-31.2 0-4.6-3.6-11.2-7.8-14-7-4.9-15.7-4.5-22.3 1-4.1 3.5-5.8 7.1-6.4 14-1.3 13.3-4.8 21.4-12.4 29.2-16 16.5-42.6 16.5-58.9.2-7.8-7.8-11.3-16-12.7-29.4-.6-6.9-2.3-10.5-6.4-14-8.6-7.2-20.6-5.5-27 3.9-1.6 2.3-2.6 5.7-3.2 11-1.4 13.1-5 21.2-12.5 28.7-19.1 19-51 15-64.7-8.1-5.1-8.5-6.2-13.8-6.2-29.2 0-12 .3-14.1 2.3-18.5 3-6.5 7.5-11.2 13.7-14.1l5-2.4 142 .3c138.8.2 142.1.2 146 2.2zm-204.4 93.9c1.1 1.4 4.7 4.7 8.2 7.4 31.7 25.2 74.5 23.3 104-4.7l5.7-5.4 6.8 6.5c18.9 18.2 45.7 25.2 72.7 18.9 2.7-.7 8.7-3 13.4-5.2 4.6-2.1 8.6-3.9 8.8-3.9.2 0 .2 4.8.1 10.7l-.3 10.8h-324l-.3-10.8c-.1-5.9 0-10.7.3-10.7.4 0 3.9 1.6 7.9 3.5 14.5 6.9 33.3 9.5 48.4 6.6 14.6-2.9 29.7-10.7 39.4-20.5 2.9-3 5.7-5.5 6.2-5.5.4-.1 1.7 1 2.7 2.3zm260.3 72.7c5.5 1.5 13.7 9.6 17.9 17.7 5.2 10.3 6 14.3 5.5 29.9-.4 12.6-.7 14.3-3.3 19.6-4.3 8.9-11.4 16-20.3 20.4-7.4 3.7-7.9 3.8-18.6 3.8-10.4 0-11.5-.2-17.9-3.2-8.4-4-16.9-12.2-20.3-19.7-2.4-5.3-3.8-11.2-5-20.8-1.7-14.8-18.7-21.5-29.8-11.7-4.1 3.5-6 8.6-7.4 19.2-1.2 9.7-4.9 17.1-11.9 24.3-8.5 8.6-17.7 12.4-30.4 12.4-12.3 0-22.1-4.3-30.8-13.5-6.7-7.1-9.7-13.7-11.5-25.9-2.3-15.3-7.6-21.1-19.3-20.9-10.2.1-16.4 6.9-17.7 19.3-1.7 15.8-8.1 26.7-20.1 34.5-8.1 5.2-14.3 6.8-24.9 6.3-11.7-.5-19.8-4-27.8-12.1-8.3-8.3-11.3-15.3-13.3-31.9-1.4-11.1-12-18.6-22.4-15.8-8 2.1-14 10.1-14.1 18.5 0 10.5-5.1 21.7-13.3 29.8-8.2 8-17.5 11.7-29.8 11.7-11.7 0-20.5-3.6-29.2-11.9-9.3-8.9-12.4-16.9-13.4-34.2-.5-10.2-.3-12.5 1.6-18.9 3-9.7 9.4-19.6 15.4-23.9 5.8-4.1.8-4 208.7-4.1 140.4 0 200.7.3 203.4 1.1zm-320.9 105c8.8 9.1 22.3 17.2 35.1 21 9 2.7 25.9 3.6 35 1.9 15.7-2.9 29.4-9.8 41.5-20.8l7-6.4 3.2 3.5c8.5 9.4 21.8 17.5 35.7 21.9 6.4 2 9.6 2.3 22 2.3s15.6-.3 22-2.3c14.1-4.5 27.5-12.8 35.7-22l3.2-3.7 5.3 5.1c15.8 15.1 31.5 22.1 52.5 23.1 15.7.8 28.9-2.1 41.1-8.9l5.2-2.9V393l-226.7-.2-226.8-.3-.3-14.8c-.1-8.1 0-14.7.3-14.7.4 0 4.3 1.8 8.8 3.9 11 5.3 18.1 7.1 30.7 7.8 22.3 1.2 44.1-7 59-22.1 3-3.1 5.7-5.6 6-5.6.3 0 2.4 1.8 4.5 4.1zm412.8 80.1c6.6 3 11.5 7.6 14.4 13.6 2.7 5.5 2.8 6.2 2.8 21.2 0 13.4-.3 16.3-2.2 21.3-4.8 12.7-15.6 23.7-28.4 28.8-6.7 2.6-18.6 3.5-26.2 2-13.4-2.8-26.4-12.4-32.4-23.9-4-7.5-5-11-6.3-21.1-1.2-10.4-3.8-14.9-10.5-18.1-8.6-4.2-18.8-1.1-23.4 7.1-1.2 2.1-2.4 7-3 12-1.6 13.6-5.6 22.3-14.2 30.9-11.7 11.7-28.4 16.3-44.8 12.5-8.8-2.1-15.5-5.9-22.3-12.7-8.8-8.8-12.2-16.7-14.7-34.1-1.1-7.8-2.5-10.4-7.6-14.3-4.6-3.4-11-4.2-16.9-2-7.7 2.9-10.9 8.2-12.1 20-2.4 23.4-18.6 40.7-41.1 43.9-21.7 3.2-43.2-9.6-51.4-30.3-1.1-2.8-2.5-9.2-3-14.2-1.1-10.9-3.6-15.5-10.2-18.7-13.1-6.3-26.8 3.2-26.8 18.5 0 1.5-.7 5.7-1.6 9.3-4.3 16.9-17.6 30.2-34.5 34.5-8.1 2-14.5 2-22.8.1-8.6-2.1-15.4-5.9-22.1-12.5-9.1-8.9-12.3-15.9-14.5-31.5-1.4-10.4-2.6-13-8-17.1-7.4-5.6-19.1-3.7-25 4-2.2 2.9-3 5.5-4 13.4-1.6 11.6-3.2 16.5-8.1 23.7-17 25.7-53.1 28.7-74.2 6.1-6.6-7.1-10.5-14.6-12.3-23.5-1.6-8.1-.7-28.3 1.4-33.3 3.5-8.3 9.4-13.7 18-16.4 3.4-1 57.3-1.2 294.2-1.1 272.9.2 290.2.3 293.8 1.9zM169 540.7c34.7 23.5 79.6 19 108.9-11.1l5.4-5.5 6.4 6.5c11.1 11.1 23.5 18.4 38.8 22.5 11.2 3.1 30.6 3.1 42 0 15.2-4 33.7-15.2 42.2-25.5l3-3.7 5.7 5.9c17.6 18.5 44.4 28.2 69.4 25.3 12.2-1.5 18.7-3.3 28.6-8.2 9.6-4.8 15.3-8.9 23.1-16.8l6-6.1 7 6.9c16.8 16.5 36.2 24.5 59.5 24.5 13.6 0 25.9-3 38.6-9.5l9.4-4.7v29.7c0 32.8-.4 35.5-6.1 42.4-1.7 2-5.2 4.9-7.7 6.5l-4.7 2.7-292.9.3-292.9.2-5.1-2.3c-6.2-2.9-11.2-7.7-14-13.7-2-4.2-2.1-6.4-2.4-34.9-.2-17 0-30.2.5-30 .5.2 4.7 2.3 9.4 4.6 12.4 6.3 22.7 8.6 37.9 8.6 14.7 0 23.8-2.1 36.6-8.3 9-4.3 21.5-13.8 25.9-19.5l2.7-3.6 7.2 6.8c3.9 3.8 9.1 8.3 11.6 10z"/></svg>